<?xml version="1.0" encoding="UTF-8" standalone="no"?>
<svg
   width="4168.9834"
   height="1148.278"
   viewBox="0 0 4168.9834 1148.278"
   version="1.1"
   id="svg1"
   xml:space="preserve"
   sodipodi:docname="LLK-LOGO-B-BLUE.svg"
   inkscape:version="1.4.2 (f4327f4, 2025-05-13)"
   inkscape:export-batch-path="C:\Users\Luiza\Downloads"
   inkscape:export-batch-name="LLK-LOGO-B-ALL-WHITE"
   xmlns:inkscape="http://www.inkscape.org/namespaces/inkscape"
   xmlns:sodipodi="http://sodipodi.sourceforge.net/DTD/sodipodi-0.dtd"
   xmlns="http://www.w3.org/2000/svg"
   xmlns:svg="http://www.w3.org/2000/svg"><sodipodi:namedview
     id="namedview1"
     pagecolor="#ffffff"
     bordercolor="#000000"
     borderopacity="1"
     inkscape:showpageshadow="2"
     inkscape:pageopacity="0.0"
     inkscape:pagecheckerboard="true"
     inkscape:deskcolor="#9d9d9d"
     inkscape:zoom="0.3802005"
     inkscape:cx="2006.8359"
     inkscape:cy="378.74753"
     inkscape:window-width="1920"
     inkscape:window-height="1010"
     inkscape:window-x="-6"
     inkscape:window-y="-6"
     inkscape:window-maximized="1"
     inkscape:current-layer="svg1"
     labelstyle="default" /><defs
     id="defs1" /><g
     inkscape:groupmode="layer"
     id="layer1"
     inkscape:label="LLK SLOGAN"
     transform="translate(-1094.1593,47.343439)"
     style="fill:#ffffff;fill-opacity:1"><path
       id="SLOGAN"
       style="-inkscape-font-specification:'Arimo, @wght=700';fill:#ffffff;fill-opacity:1;fill-rule:evenodd;stroke-width:0.870649"
       inkscape:label="SLOGAN"
       d="m 868.94641,49.863379 c -2.17082,0 -4.03501,0.419685 -5.59255,1.259145 -1.54782,0.829693 -2.73554,2.030249 -3.56296,3.601783 -0.81773,1.57154 -1.22647,3.460335 -1.22647,5.666341 0,2.206014 0.41361,4.10953 1.24107,5.71035 0.82744,1.60082 2.01517,2.835474 3.56297,3.704214 1.54781,0.858973 3.39738,1.288547 5.54873,1.288547 2.10269,0 3.93279,-0.444103 5.4903,-1.332363 1.56729,-0.88826 2.77915,-2.132797 3.6358,-3.733617 0.86639,-1.61058 1.2997,-3.489684 1.2997,-5.637131 0,-2.186486 -0.41383,-4.065398 -1.24127,-5.636938 -0.82746,-1.571533 -2.01498,-2.777127 -3.56278,-3.616581 -1.54779,-0.84922 -3.41197,-1.27375 -5.59254,-1.27375 z m 97.4259,0 c -2.1708,0 -4.03501,0.419685 -5.59254,1.259145 -1.5478,0.829693 -2.7355,2.030249 -3.56296,3.601783 -0.81774,1.57154 -1.22648,3.460335 -1.22648,5.666341 0,2.206014 0.41361,4.10953 1.24108,5.71035 0.82747,1.60082 2.01516,2.835474 3.56296,3.704214 1.5478,0.858973 3.3974,1.288547 5.54873,1.288547 2.10267,0 3.93278,-0.444103 5.49031,-1.332363 1.56733,-0.88826 2.7792,-2.132797 3.6358,-3.733617 0.8664,-1.61058 1.29969,-3.489684 1.29969,-5.637131 0,-2.186486 -0.4138,-4.065398 -1.24127,-5.636938 -0.82747,-1.571533 -2.01504,-2.777127 -3.56277,-3.616581 -1.5478,-0.84922 -3.41195,-1.27375 -5.59255,-1.27375 z m -164.82664,0.307484 v 20.630018 h 4.30746 V 50.170863 Z m 10.40563,0 v 20.630018 h 3.82566 V 58.633765 c 0,-0.468533 -0.0244,-1.010288 -0.073,-1.625241 -0.0389,-0.624714 -0.10207,-1.322643 -0.18968,-2.09377 l 8.96544,15.886127 h 5.05234 V 50.170863 h -3.82567 v 11.991466 c 0,1.20062 0.0877,2.542808 0.2629,4.026494 l -9.09709,-16.01796 z m 23.69351,0 v 20.630018 h 3.82567 V 58.633765 c 0,-0.468533 -0.0244,-1.010288 -0.073,-1.625241 -0.0389,-0.624714 -0.10207,-1.322643 -0.18968,-2.09377 l 8.96545,15.886127 h 5.05233 V 50.170863 h -3.82567 v 11.991466 c 0,1.20062 0.0875,2.542808 0.26271,4.026494 l -9.09689,-16.01796 z m 47.25558,0 7.60752,20.630018 h 4.36607 l 7.56371,-20.630018 h -4.45352 l -4.22001,13.25061 c -0.0973,0.283067 -0.21912,0.697912 -0.36514,1.244539 -0.13627,0.54662 -0.365,1.429982 -0.68626,2.650122 -0.22389,-0.86874 -0.42827,-1.625186 -0.61324,-2.269419 -0.17521,-0.653993 -0.33089,-1.195755 -0.46718,-1.625242 l -4.23462,-13.25061 z m 27.86952,0 -7.50529,20.630018 h 4.30746 l 1.8253,-5.271033 h 7.84121 l 1.8253,5.271033 h 4.26364 l -7.47607,-20.630018 z m 13.55982,0 v 3.338308 h 6.64376 v 17.29171 h 4.30745 v -17.29171 h 6.65856 v -3.338308 z m 22.02869,0 v 20.630018 h 4.30765 V 50.170863 Z m 35.76377,0 v 20.630018 h 3.82567 V 58.633765 c 0,-0.468533 -0.0242,-1.010288 -0.0728,-1.625241 -0.0389,-0.624714 -0.10227,-1.322643 -0.18987,-2.09377 l 8.96564,15.886127 h 5.05234 V 50.170863 h -3.82587 v 11.991466 c 0,1.20062 0.0876,2.542808 0.2629,4.026494 l -9.09708,-16.01796 z M 868.94641,53.26011 c 1.89825,0 3.37295,0.634574 4.4243,1.903514 1.05135,1.25918 1.577,3.001491 1.577,5.227024 0,2.332907 -0.52565,4.13392 -1.577,5.402867 -1.04159,1.26894 -2.52604,1.903322 -4.45351,1.903322 -1.23632,0 -2.30714,-0.292775 -3.21243,-0.878441 -0.8956,-0.595427 -1.58687,-1.439847 -2.0736,-2.533087 -0.48672,-1.093246 -0.73008,-2.391447 -0.73008,-3.894661 0,-2.245053 0.52568,-3.99221 1.57701,-5.24163 1.05135,-1.25918 2.54086,-1.888908 4.46831,-1.888908 z m 97.4259,0 c 1.89827,0 3.37297,0.634574 4.42431,1.903514 1.05133,1.25918 1.577,3.001491 1.577,5.227024 0,2.332907 -0.52567,4.13392 -1.577,5.402867 -1.0416,1.26894 -2.52605,1.903322 -4.45352,1.903322 -1.23626,0 -2.30709,-0.292775 -3.21243,-0.878441 -0.8956,-0.595427 -1.58686,-1.439847 -2.07359,-2.533087 -0.48673,-1.093246 -0.73008,-2.391447 -0.73008,-3.894661 0,-2.245053 0.52567,-3.99221 1.57701,-5.24163 1.05133,-1.25918 2.54084,-1.888908 4.4683,-1.888908 z m -53.06163,0.08802 c 0.12654,0.4002 0.24827,0.805169 0.36514,1.215135 0.1168,0.409967 0.24328,0.815122 0.37955,1.215328 l 2.21945,6.500967 h -5.91386 l 2.16122,-6.369133 c 0.0779,-0.224507 0.20447,-0.610087 0.37974,-1.156714 0.1752,-0.54662 0.31143,-1.015143 0.40876,-1.405583 z M 808.87396,80.800816 c -2.57928,0 -4.5468,0.507874 -5.90233,1.52358 -1.34613,1.005747 -2.01921,2.459698 -2.01921,4.361652 0,1.11528 0.1977,2.046262 0.59306,2.793102 0.39539,0.746846 0.94615,1.344335 1.65215,1.792435 0.32005,0.19916 0.64947,0.383422 0.98837,0.552702 0.33886,0.159326 0.7908,0.328677 1.35561,0.507924 0.56482,0.16928 1.34597,0.378319 2.34379,0.627266 0.86604,0.1892 1.59085,0.363395 2.17449,0.522721 0.58363,0.149367 1.02615,0.288917 1.32737,0.41837 0.61188,0.258907 1.08264,0.582525 1.41211,0.970879 0.32946,0.388358 0.49409,0.881134 0.49409,1.47861 0,0.936048 -0.36231,1.638243 -1.08715,2.106261 -0.72482,0.468018 -1.81676,0.702023 -3.27585,0.702023 -1.40259,0 -2.49932,-0.249101 -3.29007,-0.746992 -0.79071,-0.507852 -1.32266,-1.319406 -1.59564,-2.434692 l -4.02419,0.702023 c 0.82838,3.85372 3.76071,5.78069 8.7969,5.78069 2.79578,0 4.9137,-0.54272 6.35395,-1.62813 1.44969,-1.095384 2.17468,-2.673765 2.17468,-4.735049 0,-0.876294 -0.1271,-1.647984 -0.38128,-2.315157 -0.25416,-0.67714 -0.62127,-1.259725 -1.10137,-1.747659 -0.23532,-0.238993 -0.51783,-0.463122 -0.8473,-0.672235 -0.32006,-0.209113 -0.68717,-0.408087 -1.10137,-0.597287 -0.41419,-0.17924 -0.96478,-0.363494 -1.65196,-0.552701 -0.68718,-0.199153 -1.50623,-0.408385 -2.45698,-0.627458 -1.63795,-0.36844 -2.70641,-0.672118 -3.20532,-0.911112 -0.52714,-0.248946 -0.92715,-0.547595 -1.20015,-0.896121 -0.26357,-0.34852 -0.39531,-0.796785 -0.39531,-1.344471 0,-0.83646 0.31519,-1.463757 0.9459,-1.881991 0.63069,-0.418226 1.57687,-0.627266 2.83826,-0.627266 1.1861,0 2.09436,0.228973 2.72507,0.687033 0.64012,0.45806 1.06379,1.140135 1.27087,2.046302 l 4.03841,-0.582489 c -0.35769,-1.88204 -1.15791,-3.231279 -2.40048,-4.047826 -1.23318,-0.816546 -3.0828,-1.224937 -5.54912,-1.224937 z m 94.23788,0 c -2.57929,0 -4.54682,0.507874 -5.90233,1.52358 -1.34613,1.005747 -2.01921,2.459698 -2.01921,4.361652 0,1.11528 0.1977,2.046262 0.59306,2.793102 0.39538,0.746846 0.94615,1.344335 1.65215,1.792435 0.32005,0.19916 0.64949,0.383422 0.98837,0.552702 0.33889,0.159326 0.79081,0.328677 1.35561,0.507924 0.56482,0.16928 1.34598,0.378319 2.3438,0.627266 0.86604,0.1892 1.59104,0.363395 2.17467,0.522721 0.58363,0.149367 1.02596,0.288917 1.32718,0.41837 0.61189,0.258907 1.08265,0.582525 1.41211,0.970879 0.32946,0.388358 0.49409,0.881134 0.49409,1.47861 0,0.936048 -0.36233,1.638243 -1.08715,2.106261 -0.72483,0.468018 -1.81676,0.702023 -3.27585,0.702023 -1.40259,0 -2.49933,-0.249101 -3.29007,-0.746992 -0.79073,-0.507852 -1.32266,-1.319406 -1.59564,-2.434692 l -4.02419,0.702023 c 0.82839,3.85372 3.76072,5.78069 8.7969,5.78069 2.7958,0 4.9137,-0.54272 6.35396,-1.62813 1.44963,-1.095384 2.17448,-2.673765 2.17448,-4.735049 0,-0.876294 -0.12695,-1.647984 -0.38109,-2.315157 -0.25413,-0.67714 -0.62123,-1.259725 -1.10137,-1.747659 -0.23533,-0.238993 -0.51786,-0.463122 -0.8473,-0.672235 -0.32008,-0.209113 -0.68717,-0.408087 -1.10137,-0.597287 -0.41419,-0.17924 -0.96478,-0.363494 -1.65196,-0.552701 -0.68717,-0.199153 -1.50623,-0.408385 -2.45698,-0.627458 -1.63795,-0.36844 -2.70642,-0.672118 -3.20532,-0.911112 -0.52715,-0.248946 -0.92715,-0.547595 -1.20015,-0.896121 -0.26357,-0.34852 -0.39531,-0.796785 -0.39531,-1.344471 0,-0.83646 0.31519,-1.463757 0.9459,-1.881991 0.63069,-0.418226 1.57686,-0.627266 2.83826,-0.627266 1.18608,0 2.09436,0.228973 2.72508,0.687033 0.64011,0.45806 1.06376,1.140135 1.27086,2.046302 l 4.03841,-0.582489 c -0.35773,-1.88204 -1.15792,-3.231279 -2.40048,-4.047826 -1.23314,-0.816546 -3.08279,-1.224937 -5.54912,-1.224937 z m -84.31155,0.313826 v 3.40557 h 6.42468 v 17.640318 h 4.16544 V 84.520212 h 6.43889 v -3.40557 z m 23.17118,0 -7.25776,21.045888 h 4.16544 l 1.76515,-5.377306 h 7.58254 l 1.76495,5.377306 h 4.12297 l -7.22951,-21.045888 z m 14.8403,0 v 21.045888 h 4.16544 v -7.991106 h 4.88552 l 4.61744,7.991106 h 4.68778 l -5.37981,-8.842643 c 1.34614,-0.338567 2.41459,-1.040582 3.20533,-2.106069 0.79071,-1.07546 1.18611,-2.349987 1.18611,-3.823747 0,-2.021454 -0.64482,-3.569858 -1.93445,-4.645305 -1.28964,-1.085413 -3.12061,-1.628124 -5.49281,-1.628124 z m 19.27402,0 v 3.40557 h 6.42467 v 17.640318 h 4.16544 V 84.520212 h 6.43889 v -3.40557 z m 46.5966,0 v 21.045888 h 4.16525 v -9.021752 h 8.66987 v 9.021752 h 4.16544 V 81.114642 h -4.16544 v 8.379497 h -8.66987 v -8.379497 z m 20.88369,0 v 21.045888 h 16.22398 v -3.405569 h -12.05854 v -5.541618 h 10.61836 v -3.405571 h -10.61836 v -5.28756 h 11.4797 v -3.40557 z m 19.28805,0 v 21.045888 h 4.16544 v -7.991106 h 4.88552 l 4.61725,7.991106 h 4.68797 l -5.37981,-8.842643 c 1.34614,-0.338567 2.41459,-1.040582 3.20532,-2.106069 0.79074,-1.07546 1.18612,-2.349987 1.18612,-3.823747 0,-2.021454 -0.64485,-3.569858 -1.93445,-4.645305 -1.28967,-1.085413 -3.12061,-1.628124 -5.49281,-1.628124 z m 20.88369,0 v 21.045888 h 16.22417 v -3.405569 h -12.05873 v -5.541618 h 10.61836 v -3.405571 h -10.61836 v -5.28756 h 11.47989 v -3.40557 z M 844.42845,84.3559 c 0.12238,0.40828 0.24007,0.821508 0.35303,1.239735 0.11296,0.418227 0.23527,0.831461 0.36706,1.239734 l 2.14624,6.632032 h -5.71862 l 2.08974,-6.497508 c 0.0753,-0.229033 0.19781,-0.622519 0.36725,-1.180159 0.16944,-0.55764 0.30116,-1.035514 0.3953,-1.433834 z m 16.54876,0.17911 h 5.33753 c 1.22376,0 2.14146,0.253936 2.75332,0.76179 0.61187,0.507853 0.91783,1.264825 0.91783,2.270572 0,1.005747 -0.30115,1.787305 -0.90361,2.344945 -0.60248,0.55764 -1.48748,0.836547 -2.65474,0.836547 h -5.45033 z m 106.04236,0 h 5.33752 c 1.22374,0 2.14146,0.253936 2.75333,0.76179 0.61186,0.507853 0.91783,1.264825 0.91783,2.270572 0,1.005747 -0.30134,1.787305 -0.90381,2.344945 -0.60246,0.55764 -1.48727,0.836547 -2.65454,0.836547 h -5.45033 z"
       transform="matrix(10.163152,0,0,10.163152,-4899.6231,-246.34137)"><title
         id="title1">SLOGAN</title></path><g
       id="LLK"
       transform="matrix(10.163152,0,0,10.163152,-4899.6231,-246.34137)"
       inkscape:label="LLK"
       style="fill:#ffffff;fill-opacity:1"><title
         id="title5">LLK</title><path
         d="M 147.7227,92.31645 176.72993,56.240976 147.74931,20.677394 167.80874,20.656984 196.7894,56.220566 167.78216,92.29604 Z"
         style="fill:#ffffff;fill-opacity:1;stroke:none;stroke-width:0.978002;stroke-dasharray:none"
         id="SETA"
         transform="translate(589.75625,19.580336)"
         inkscape:label="SETA"><title
           id="title9">SETA</title></path><path
         id="K"
         style="fill:#ffffff;fill-opacity:1;stroke:none;stroke-width:0.264999;stroke-dasharray:none"
         d="M 669.56366,19.583661 V 132.5499 h 16.2295 V 99.050645 l 26.65316,33.147335 20.05924,0.0207 -29.00702,-36.075837 28.98066,-35.563203 -20.05924,-0.02067 -26.6268,32.674491 v -73.6498 z"
         inkscape:label="K"><title
           id="title8">K</title></path><path
         d="m 646.5572,103.70515 c 0,8.93418 3.88739,13.31947 11.66021,13.31947 l 2.69247,-0.0331 v 15.57297 l -2.69247,-0.0292 c -16.39107,0 -27.88434,-8.26319 -27.88434,-28.99665 V 19.580336 h 16.22413 z"
         style="fill:#ffffff;fill-opacity:1;fill-rule:nonzero;stroke:none;stroke-width:0.264999;stroke-dasharray:none"
         id="L2"
         inkscape:label="L2"><title
           id="title7">L2</title></path><path
         d="m 605.98037,103.70542 c 0,8.93418 3.88739,13.31947 11.66021,13.31947 l 2.69247,-0.0331 v 15.57298 l -2.69247,-0.0292 c -16.39106,0 -27.88433,-8.26319 -27.88433,-28.99665 V 19.580615 h 16.22412 z"
         style="fill:#ffffff;fill-opacity:1;fill-rule:nonzero;stroke:none;stroke-width:0.264999;stroke-dasharray:none"
         id="L1"
         inkscape:label="L1"><title
           id="title6">L1</title></path></g></g></svg>
